<?xml version="1.0" encoding="UTF-8" standalone="no"?><svg xmlns="http://www.w3.org/2000/svg" xmlns:xlink="http://www.w3.org/1999/xlink" contentScriptType="application/ecmascript" contentStyleType="text/css" height="798px" preserveAspectRatio="none" style="width:943px;height:798px;background:#FFFFFF;" version="1.1" viewBox="0 0 943 798" width="943px" zoomAndPan="magnify"><defs/><g><rect fill="#FFFFFF" height="58.2656" style="stroke:#383838;stroke-width:1.0;" width="10" x="78" y="115.4297"/><rect fill="#FFFFFF" height="8" style="stroke:#FFFFFF;stroke-width:1.0;" width="10" x="861" y="478.5"/><line style="stroke:#383838;stroke-width:1.0;" x1="861" x2="861" y1="478.5" y2="486.5"/><line style="stroke:#383838;stroke-width:1.0;" x1="871" x2="871" y1="478.5" y2="486.5"/><line style="stroke:#383838;stroke-width:1.0;" x1="861" x2="871" y1="478.5" y2="478.5"/><rect fill="#FFFFFF" height="113.3359" style="stroke:#FFFFFF;stroke-width:1.0;" width="10" x="861" y="527.3047"/><line style="stroke:#383838;stroke-width:1.0;" x1="861" x2="861" y1="527.3047" y2="640.6406"/><line style="stroke:#383838;stroke-width:1.0;" x1="871" x2="871" y1="527.3047" y2="640.6406"/><line style="stroke:#383838;stroke-width:1.0;" x1="861" x2="871" y1="640.6406" y2="640.6406"/><rect fill="#FFFFFF" height="382.875" style="stroke:#000000;stroke-width:2.0;" width="755.5" x="181.5" y="315.8984"/><rect fill="#FFFFFF" height="251.5391" style="stroke:#000000;stroke-width:2.0;" width="735.5" x="191.5" y="440.2344"/><rect fill="#FFFFFF" height="150.4688" style="stroke:#000000;stroke-width:2.0;" width="715.5" x="201.5" y="534.3047"/><rect fill="#FFFFFF" height="119.3359" style="stroke:#000000;stroke-width:2.0;" width="695.5" x="211.5" y="558.4375"/><rect fill="#FFFFFF" height="73.0703" style="stroke:none;stroke-width:1.0;" width="695.5" x="211.5" y="604.7031"/><line style="stroke:#383838;stroke-width:1.0;" x1="83" x2="83" y1="84.2969" y2="181.6953"/><line style="stroke:#383838;stroke-width:1.0;stroke-dasharray:1.0,4.0;" x1="83" x2="83" y1="181.6953" y2="222.5"/><line style="stroke:#383838;stroke-width:1.0;" x1="83" x2="83" y1="222.5" y2="392.4297"/><line style="stroke:#383838;stroke-width:1.0;stroke-dasharray:1.0,4.0;" x1="83" x2="83" y1="392.4297" y2="433.2344"/><line style="stroke:#383838;stroke-width:1.0;" x1="83" x2="83" y1="433.2344" y2="486.5"/><line style="stroke:#383838;stroke-width:1.0;stroke-dasharray:1.0,4.0;" x1="83" x2="83" y1="486.5" y2="527.3047"/><line style="stroke:#383838;stroke-width:1.0;" x1="83" x2="83" y1="527.3047" y2="715.7734"/><line style="stroke:#383838;stroke-width:1.0;" x1="260.5" x2="260.5" y1="84.2969" y2="181.6953"/><line style="stroke:#383838;stroke-width:1.0;stroke-dasharray:1.0,4.0;" x1="260.5" x2="260.5" y1="181.6953" y2="222.5"/><line style="stroke:#383838;stroke-width:1.0;" x1="260.5" x2="260.5" y1="222.5" y2="392.4297"/><line style="stroke:#383838;stroke-width:1.0;stroke-dasharray:1.0,4.0;" x1="260.5" x2="260.5" y1="392.4297" y2="433.2344"/><line style="stroke:#383838;stroke-width:1.0;" x1="260.5" x2="260.5" y1="433.2344" y2="486.5"/><line style="stroke:#383838;stroke-width:1.0;stroke-dasharray:1.0,4.0;" x1="260.5" x2="260.5" y1="486.5" y2="527.3047"/><line style="stroke:#383838;stroke-width:1.0;" x1="260.5" x2="260.5" y1="527.3047" y2="715.7734"/><line style="stroke:#383838;stroke-width:1.0;" x1="560.5" x2="560.5" y1="84.2969" y2="181.6953"/><line style="stroke:#383838;stroke-width:1.0;stroke-dasharray:1.0,4.0;" x1="560.5" x2="560.5" y1="181.6953" y2="222.5"/><line style="stroke:#383838;stroke-width:1.0;" x1="560.5" x2="560.5" y1="222.5" y2="392.4297"/><line style="stroke:#383838;stroke-width:1.0;stroke-dasharray:1.0,4.0;" x1="560.5" x2="560.5" y1="392.4297" y2="433.2344"/><line style="stroke:#383838;stroke-width:1.0;" x1="560.5" x2="560.5" y1="433.2344" y2="486.5"/><line style="stroke:#383838;stroke-width:1.0;stroke-dasharray:1.0,4.0;" x1="560.5" x2="560.5" y1="486.5" y2="527.3047"/><line style="stroke:#383838;stroke-width:1.0;" x1="560.5" x2="560.5" y1="527.3047" y2="715.7734"/><line style="stroke:#383838;stroke-width:1.0;" x1="866" x2="866" y1="84.2969" y2="181.6953"/><line style="stroke:#383838;stroke-width:1.0;stroke-dasharray:1.0,4.0;" x1="866" x2="866" y1="181.6953" y2="222.5"/><line style="stroke:#383838;stroke-width:1.0;" x1="866" x2="866" y1="222.5" y2="392.4297"/><line style="stroke:#383838;stroke-width:1.0;stroke-dasharray:1.0,4.0;" x1="866" x2="866" y1="392.4297" y2="433.2344"/><line style="stroke:#383838;stroke-width:1.0;" x1="866" x2="866" y1="433.2344" y2="486.5"/><line style="stroke:#383838;stroke-width:1.0;stroke-dasharray:1.0,4.0;" x1="866" x2="866" y1="486.5" y2="527.3047"/><line style="stroke:#383838;stroke-width:1.0;" x1="866" x2="866" y1="527.3047" y2="715.7734"/><text fill="#000000" font-family="sans-serif" font-size="14" lengthAdjust="spacing" textLength="150" x="5" y="80.9951">Professor Jason Smith</text><ellipse cx="83" cy="15" fill="#F8F8F8" rx="8" ry="8" style="stroke:#383838;stroke-width:2.0;"/><path d="M83,23 L83,50 M70,31 L96,31 M83,50 L70,65 M83,50 L96,65 " fill="none" style="stroke:#383838;stroke-width:2.0;"/><text fill="#000000" font-family="sans-serif" font-size="14" lengthAdjust="spacing" textLength="150" x="5" y="727.7686">Professor Jason Smith</text><ellipse cx="83" cy="741.0703" fill="#F8F8F8" rx="8" ry="8" style="stroke:#383838;stroke-width:2.0;"/><path d="M83,749.0703 L83,776.0703 M70,757.0703 L96,757.0703 M83,776.0703 L70,791.0703 M83,776.0703 L96,791.0703 " fill="none" style="stroke:#383838;stroke-width:2.0;"/><text fill="#000000" font-family="sans-serif" font-size="14" lengthAdjust="spacing" textLength="73" x="221.5" y="80.9951">Requester</text><ellipse cx="261" cy="15" fill="#F8F8F8" rx="8" ry="8" style="stroke:#383838;stroke-width:2.0;"/><path d="M261,23 L261,50 M248,31 L274,31 M261,50 L248,65 M261,50 L274,65 " fill="none" style="stroke:#383838;stroke-width:2.0;"/><text fill="#000000" font-family="sans-serif" font-size="14" lengthAdjust="spacing" textLength="73" x="221.5" y="727.7686">Requester</text><ellipse cx="261" cy="741.0703" fill="#F8F8F8" rx="8" ry="8" style="stroke:#383838;stroke-width:2.0;"/><path d="M261,749.0703 L261,776.0703 M248,757.0703 L274,757.0703 M261,776.0703 L248,791.0703 M261,776.0703 L274,791.0703 " fill="none" style="stroke:#383838;stroke-width:2.0;"/><text fill="#000000" font-family="sans-serif" font-size="14" lengthAdjust="spacing" textLength="89" x="513.5" y="80.9951">Pratik Bhusal</text><ellipse cx="561" cy="15" fill="#F8F8F8" rx="8" ry="8" style="stroke:#383838;stroke-width:2.0;"/><path d="M561,23 L561,50 M548,31 L574,31 M561,50 L548,65 M561,50 L574,65 " fill="none" style="stroke:#383838;stroke-width:2.0;"/><text fill="#000000" font-family="sans-serif" font-size="14" lengthAdjust="spacing" textLength="89" x="513.5" y="727.7686">Pratik Bhusal</text><ellipse cx="561" cy="741.0703" fill="#F8F8F8" rx="8" ry="8" style="stroke:#383838;stroke-width:2.0;"/><path d="M561,749.0703 L561,776.0703 M548,757.0703 L574,757.0703 M561,776.0703 L548,791.0703 M561,776.0703 L574,791.0703 " fill="none" style="stroke:#383838;stroke-width:2.0;"/><text fill="#000000" font-family="sans-serif" font-size="14" lengthAdjust="spacing" textLength="56" x="835" y="80.9951">Referrer</text><ellipse cx="866" cy="15" fill="#F8F8F8" rx="8" ry="8" style="stroke:#383838;stroke-width:2.0;"/><path d="M866,23 L866,50 M853,31 L879,31 M866,50 L853,65 M866,50 L879,65 " fill="none" style="stroke:#383838;stroke-width:2.0;"/><text fill="#000000" font-family="sans-serif" font-size="14" lengthAdjust="spacing" textLength="56" x="835" y="727.7686">Referrer</text><ellipse cx="866" cy="741.0703" fill="#F8F8F8" rx="8" ry="8" style="stroke:#383838;stroke-width:2.0;"/><path d="M866,749.0703 L866,776.0703 M853,757.0703 L879,757.0703 M866,776.0703 L853,791.0703 M866,776.0703 L879,791.0703 " fill="none" style="stroke:#383838;stroke-width:2.0;"/><rect fill="#FFFFFF" height="58.2656" style="stroke:#383838;stroke-width:1.0;" width="10" x="78" y="115.4297"/><rect fill="#FFFFFF" height="8" style="stroke:#FFFFFF;stroke-width:1.0;" width="10" x="861" y="478.5"/><line style="stroke:#383838;stroke-width:1.0;" x1="861" x2="861" y1="478.5" y2="486.5"/><line style="stroke:#383838;stroke-width:1.0;" x1="871" x2="871" y1="478.5" y2="486.5"/><line style="stroke:#383838;stroke-width:1.0;" x1="861" x2="871" y1="478.5" y2="478.5"/><rect fill="#FFFFFF" height="113.3359" style="stroke:#FFFFFF;stroke-width:1.0;" width="10" x="861" y="527.3047"/><line style="stroke:#383838;stroke-width:1.0;" x1="861" x2="861" y1="527.3047" y2="640.6406"/><line style="stroke:#383838;stroke-width:1.0;" x1="871" x2="871" y1="527.3047" y2="640.6406"/><line style="stroke:#383838;stroke-width:1.0;" x1="861" x2="871" y1="640.6406" y2="640.6406"/><polygon fill="#383838" points="99,111.4297,89,115.4297,99,119.4297,95,115.4297" style="stroke:#383838;stroke-width:1.0;"/><line style="stroke:#383838;stroke-width:1.0;" x1="93" x2="560" y1="115.4297" y2="115.4297"/><text fill="#000000" font-family="sans-serif" font-size="13" font-weight="bold" lengthAdjust="spacing" textLength="9" x="105" y="110.3638">1</text><text fill="#000000" font-family="sans-serif" font-size="13" lengthAdjust="spacing" textLength="133" x="118" y="110.3638">Send requester form</text><polygon fill="#383838" points="249,140.5625,259,144.5625,249,148.5625,253,144.5625" style="stroke:#383838;stroke-width:1.0;"/><line style="stroke:#383838;stroke-width:1.0;" x1="88" x2="255" y1="144.5625" y2="144.5625"/><text fill="#000000" font-family="sans-serif" font-size="13" font-weight="bold" lengthAdjust="spacing" textLength="9" x="95" y="139.4966">2</text><text fill="#000000" font-family="sans-serif" font-size="13" lengthAdjust="spacing" textLength="136" x="108" y="139.4966">Notify form existance</text><polygon fill="#383838" points="549,169.6953,559,173.6953,549,177.6953,553,173.6953" style="stroke:#383838;stroke-width:1.0;"/><line style="stroke:#383838;stroke-width:1.0;" x1="83" x2="555" y1="173.6953" y2="173.6953"/><text fill="#000000" font-family="sans-serif" font-size="13" font-weight="bold" lengthAdjust="spacing" textLength="9" x="90" y="168.6294">3</text><text fill="#000000" font-family="sans-serif" font-size="13" lengthAdjust="spacing" textLength="177" x="103" y="168.6294">Send list of eligible mentors</text><text fill="#000000" font-family="sans-serif" font-size="11" lengthAdjust="spacing" textLength="138" x="405.5" y="205.9058">Wait for referral request</text><polygon fill="#383838" points="549,254.7656,559,258.7656,549,262.7656,553,258.7656" style="stroke:#383838;stroke-width:1.0;"/><line style="stroke:#383838;stroke-width:1.0;" x1="261" x2="555" y1="258.7656" y2="258.7656"/><text fill="#000000" font-family="sans-serif" font-size="13" font-weight="bold" lengthAdjust="spacing" textLength="9" x="268" y="246.1333">4</text><text fill="#000000" font-family="sans-serif" font-size="13" lengthAdjust="spacing" textLength="86" x="281" y="238.5669">Send resume</text><text fill="#000000" font-family="sans-serif" font-size="13" lengthAdjust="spacing" textLength="263" x="281" y="253.6997">and list of companies to request referrals</text><line style="stroke:#383838;stroke-width:1.0;" x1="561" x2="603" y1="287.8984" y2="287.8984"/><line style="stroke:#383838;stroke-width:1.0;" x1="603" x2="603" y1="287.8984" y2="300.8984"/><line style="stroke:#383838;stroke-width:1.0;" x1="562" x2="603" y1="300.8984" y2="300.8984"/><polygon fill="#383838" points="572,296.8984,562,300.8984,572,304.8984,568,300.8984" style="stroke:#383838;stroke-width:1.0;"/><text fill="#000000" font-family="sans-serif" font-size="13" font-weight="bold" lengthAdjust="spacing" textLength="9" x="568" y="282.8325">5</text><text fill="#000000" font-family="sans-serif" font-size="13" lengthAdjust="spacing" textLength="178" x="581" y="282.8325">Check if requester is eligible</text><path d="M181.5,315.8984 L241.5,315.8984 L241.5,322.8984 L231.5,332.8984 L181.5,332.8984 L181.5,315.8984 " fill="#EEEEEE" style="stroke:#000000;stroke-width:1.0;"/><rect fill="none" height="382.875" style="stroke:#000000;stroke-width:2.0;" width="755.5" x="181.5" y="315.8984"/><text fill="#000000" font-family="sans-serif" font-size="13" font-weight="bold" lengthAdjust="spacing" textLength="10" x="196.5" y="328.9653">if</text><text fill="#000000" font-family="sans-serif" font-size="11" font-weight="bold" lengthAdjust="spacing" textLength="127" x="256.5" y="328.1089">[Requester eligible]</text><polygon fill="#383838" points="272,380.4297,262,384.4297,272,388.4297,268,384.4297" style="stroke:#383838;stroke-width:1.0;"/><line style="stroke:#383838;stroke-width:1.0;stroke-dasharray:2.0,2.0;" x1="266" x2="560" y1="384.4297" y2="384.4297"/><text fill="#000000" font-family="sans-serif" font-size="13" font-weight="bold" lengthAdjust="spacing" textLength="9" x="278" y="364.231">6</text><text fill="#000000" font-family="sans-serif" font-size="13" lengthAdjust="spacing" textLength="169" x="291" y="349.0981">Notify that they are eligble</text><text fill="#000000" font-family="sans-serif" font-size="13" lengthAdjust="spacing" textLength="143" x="291" y="364.231">and that they will send</text><text fill="#000000" font-family="sans-serif" font-size="13" lengthAdjust="spacing" textLength="103" x="291" y="379.3638">referral request.</text><text fill="#000000" font-family="sans-serif" font-size="11" lengthAdjust="spacing" textLength="223" x="363" y="416.6401">Wait for Pratik actually having free time</text><path d="M191.5,440.2344 L302.5,440.2344 L302.5,447.2344 L292.5,457.2344 L191.5,457.2344 L191.5,440.2344 " fill="#EEEEEE" style="stroke:#000000;stroke-width:1.0;"/><rect fill="none" height="251.5391" style="stroke:#000000;stroke-width:2.0;" width="735.5" x="191.5" y="440.2344"/><text fill="#000000" font-family="sans-serif" font-size="13" font-weight="bold" lengthAdjust="spacing" textLength="61" x="206.5" y="453.3013">for each</text><text fill="#000000" font-family="sans-serif" font-size="11" font-weight="bold" lengthAdjust="spacing" textLength="172" x="317.5" y="452.4448">[company referral request]</text><polygon fill="#383838" points="849,474.5,859,478.5,849,482.5,853,478.5" style="stroke:#383838;stroke-width:1.0;"/><line style="stroke:#383838;stroke-width:1.0;" x1="561" x2="855" y1="478.5" y2="478.5"/><text fill="#000000" font-family="sans-serif" font-size="13" font-weight="bold" lengthAdjust="spacing" textLength="9" x="568" y="473.4341">7</text><text fill="#000000" font-family="sans-serif" font-size="13" lengthAdjust="spacing" textLength="136" x="581" y="473.4341">Send referral request</text><text fill="#000000" font-family="sans-serif" font-size="11" lengthAdjust="spacing" textLength="199" x="375" y="510.7104">Wait for Referrer to look at request</text><path d="M201.5,534.3047 L261.5,534.3047 L261.5,541.3047 L251.5,551.3047 L201.5,551.3047 L201.5,534.3047 " fill="#EEEEEE" style="stroke:#000000;stroke-width:1.0;"/><rect fill="none" height="150.4688" style="stroke:#000000;stroke-width:2.0;" width="715.5" x="201.5" y="534.3047"/><text fill="#000000" font-family="sans-serif" font-size="13" font-weight="bold" lengthAdjust="spacing" textLength="10" x="216.5" y="547.3716">if</text><text fill="#000000" font-family="sans-serif" font-size="11" font-weight="bold" lengthAdjust="spacing" textLength="291" x="276.5" y="546.5151">[Referrer wants to give referral to Requester]</text><path d="M211.5,558.4375 L271.5,558.4375 L271.5,565.4375 L261.5,575.4375 L211.5,575.4375 L211.5,558.4375 " fill="#EEEEEE" style="stroke:#000000;stroke-width:1.0;"/><rect fill="none" height="119.3359" style="stroke:#000000;stroke-width:2.0;" width="695.5" x="211.5" y="558.4375"/><text fill="#000000" font-family="sans-serif" font-size="13" font-weight="bold" lengthAdjust="spacing" textLength="10" x="226.5" y="571.5044">if</text><text fill="#000000" font-family="sans-serif" font-size="11" font-weight="bold" lengthAdjust="spacing" textLength="303" x="286.5" y="570.6479">[Referrer wants to directly talk with Requester]</text><polygon fill="#383838" points="272,592.7031,262,596.7031,272,600.7031,268,596.7031" style="stroke:#383838;stroke-width:1.0;"/><line style="stroke:#383838;stroke-width:1.0;stroke-dasharray:2.0,2.0;" x1="266" x2="860" y1="596.7031" y2="596.7031"/><text fill="#000000" font-family="sans-serif" font-size="13" font-weight="bold" lengthAdjust="spacing" textLength="9" x="278" y="591.6372">8</text><text fill="#000000" font-family="sans-serif" font-size="13" lengthAdjust="spacing" textLength="156" x="291" y="591.6372">Notify final referral steps</text><line style="stroke:#000000;stroke-width:1.0;stroke-dasharray:2.0,2.0;" x1="211.5" x2="907" y1="605.7031" y2="605.7031"/><text fill="#000000" font-family="sans-serif" font-size="11" font-weight="bold" lengthAdjust="spacing" textLength="74" x="216.5" y="615.9136">[otherwise]</text><polygon fill="#383838" points="572,636.6406,562,640.6406,572,644.6406,568,640.6406" style="stroke:#383838;stroke-width:1.0;"/><line style="stroke:#383838;stroke-width:1.0;stroke-dasharray:2.0,2.0;" x1="566" x2="865" y1="640.6406" y2="640.6406"/><text fill="#000000" font-family="sans-serif" font-size="13" font-weight="bold" lengthAdjust="spacing" textLength="9" x="578" y="635.5747">9</text><text fill="#000000" font-family="sans-serif" font-size="13" lengthAdjust="spacing" textLength="263" x="591" y="635.5747">Request Pratik to send final referral steps</text><polygon fill="#383838" points="272,665.7734,262,669.7734,272,673.7734,268,669.7734" style="stroke:#383838;stroke-width:1.0;"/><line style="stroke:#383838;stroke-width:1.0;stroke-dasharray:2.0,2.0;" x1="266" x2="560" y1="669.7734" y2="669.7734"/><text fill="#000000" font-family="sans-serif" font-size="13" font-weight="bold" lengthAdjust="spacing" textLength="18" x="278" y="664.7075">10</text><text fill="#000000" font-family="sans-serif" font-size="13" lengthAdjust="spacing" textLength="156" x="300" y="664.7075">Notify final referral steps</text><!--MD5=[e6b574d2056d286e16d34593bfcf442b]
@startuml
' Basic Configuration
skinparam monochrome true
skinparam shadowing false
autonumber

actor "Professor Jason Smith" as boss
actor "Requester" as requester
actor "Pratik Bhusal" as pratik
actor "Referrer" as referrer

pratik -> boss: Send requester form
activate boss

boss -> requester: Notify form existance

boss -> pratik: Send list of eligible mentors

deactivate boss

...Wait for referral request...

requester -> pratik: Send resume\nand list of companies to request referrals

pratik -> pratik: Check if requester is eligible


group if [Requester eligible]
    requester <- - pratik: Notify that they are eligble\nand that they will send\nreferral request.

    ...Wait for Pratik actually having free time...

    group for each [company referral request]
                pratik -> referrer: Send referral request
        activate referrer

        ...Wait for Referrer to look at request...
        group if [Referrer wants to give referral to Requester]
            group if [Referrer wants to directly talk with Requester]
                requester <- - referrer: Notify final referral steps
            else otherwise
                pratik <- - referrer: Request Pratik to send final referral steps
                deactivate referrer
                requester <- - pratik: Notify final referral steps
            end
        end
    end
end

@enduml

@startuml
skinparam monochrome true
skinparam shadowing false
autonumber

actor "Professor Jason Smith" as boss
actor "Requester" as requester
actor "Pratik Bhusal" as pratik
actor "Referrer" as referrer

pratik -> boss: Send requester form
activate boss

boss -> requester: Notify form existance

boss -> pratik: Send list of eligible mentors

deactivate boss

...Wait for referral request...

requester -> pratik: Send resume\nand list of companies to request referrals

pratik -> pratik: Check if requester is eligible


group if [Requester eligible]
    requester <- - pratik: Notify that they are eligble\nand that they will send\nreferral request.

    ...Wait for Pratik actually having free time...

    group for each [company referral request]
                pratik -> referrer: Send referral request
        activate referrer

        ...Wait for Referrer to look at request...
        group if [Referrer wants to give referral to Requester]
            group if [Referrer wants to directly talk with Requester]
                requester <- - referrer: Notify final referral steps
            else otherwise
                pratik <- - referrer: Request Pratik to send final referral steps
                deactivate referrer
                requester <- - pratik: Notify final referral steps
            end
        end
    end
end

@enduml

PlantUML version 1.2021.9(Sun Jul 25 05:13:56 CDT 2021)
(GPL source distribution)
Java Runtime: OpenJDK Runtime Environment
JVM: OpenJDK 64-Bit Server VM
Default Encoding: UTF-8
Language: en
Country: US
--></g></svg>