<?xml version="1.0" encoding="UTF-8" standalone="no"?><svg xmlns="http://www.w3.org/2000/svg" xmlns:xlink="http://www.w3.org/1999/xlink" contentScriptType="application/ecmascript" contentStyleType="text/css" height="845px" preserveAspectRatio="none" style="width:908px;height:845px;background:#FFFFFF;" version="1.1" viewBox="0 0 908 845" width="908px" zoomAndPan="magnify"><defs/><g><rect fill="#FFFFFF" height="95.2422" style="stroke:#383838;stroke-width:1.0;" width="10" x="77.5" y="115.7988"/><rect fill="#FFFFFF" height="8" style="stroke:#FFFFFF;stroke-width:1.0;" width="10" x="826.5" y="524.7461"/><line style="stroke:#383838;stroke-width:1.0;" x1="826.5" x2="826.5" y1="524.7461" y2="532.7461"/><line style="stroke:#383838;stroke-width:1.0;" x1="836.5" x2="836.5" y1="524.7461" y2="532.7461"/><line style="stroke:#383838;stroke-width:1.0;" x1="826.5" x2="836.5" y1="524.7461" y2="524.7461"/><rect fill="#FFFFFF" height="114.1973" style="stroke:#FFFFFF;stroke-width:1.0;" width="10" x="826.5" y="573.7012"/><line style="stroke:#383838;stroke-width:1.0;" x1="826.5" x2="826.5" y1="573.7012" y2="687.8984"/><line style="stroke:#383838;stroke-width:1.0;" x1="836.5" x2="836.5" y1="573.7012" y2="687.8984"/><line style="stroke:#383838;stroke-width:1.0;" x1="826.5" x2="836.5" y1="687.8984" y2="687.8984"/><rect fill="#FFFFFF" height="385.2813" style="stroke:#000000;stroke-width:2.0;" width="747.5" x="155" y="360.9277"/><rect fill="#FFFFFF" height="253.084" style="stroke:#000000;stroke-width:2.0;" width="727.5" x="165" y="486.125"/><rect fill="#FFFFFF" height="151.5078" style="stroke:#000000;stroke-width:2.0;" width="707.5" x="175" y="580.7012"/><rect fill="#FFFFFF" height="120.1973" style="stroke:#000000;stroke-width:2.0;" width="687.5" x="185" y="605.0117"/><rect fill="#FFFFFF" height="73.5762" style="stroke:none;stroke-width:1.0;" width="687.5" x="185" y="651.6328"/><line style="stroke:#383838;stroke-width:1.0;" x1="82" x2="82" y1="84.4883" y2="226.041"/><line style="stroke:#383838;stroke-width:1.0;stroke-dasharray:1.0,4.0;" x1="82" x2="82" y1="226.041" y2="266.9961"/><line style="stroke:#383838;stroke-width:1.0;" x1="82" x2="82" y1="266.9961" y2="438.1699"/><line style="stroke:#383838;stroke-width:1.0;stroke-dasharray:1.0,4.0;" x1="82" x2="82" y1="438.1699" y2="479.125"/><line style="stroke:#383838;stroke-width:1.0;" x1="82" x2="82" y1="479.125" y2="532.7461"/><line style="stroke:#383838;stroke-width:1.0;stroke-dasharray:1.0,4.0;" x1="82" x2="82" y1="532.7461" y2="573.7012"/><line style="stroke:#383838;stroke-width:1.0;" x1="82" x2="82" y1="573.7012" y2="763.209"/><line style="stroke:#383838;stroke-width:1.0;" x1="232" x2="232" y1="84.4883" y2="226.041"/><line style="stroke:#383838;stroke-width:1.0;stroke-dasharray:1.0,4.0;" x1="232" x2="232" y1="226.041" y2="266.9961"/><line style="stroke:#383838;stroke-width:1.0;" x1="232" x2="232" y1="266.9961" y2="438.1699"/><line style="stroke:#383838;stroke-width:1.0;stroke-dasharray:1.0,4.0;" x1="232" x2="232" y1="438.1699" y2="479.125"/><line style="stroke:#383838;stroke-width:1.0;" x1="232" x2="232" y1="479.125" y2="532.7461"/><line style="stroke:#383838;stroke-width:1.0;stroke-dasharray:1.0,4.0;" x1="232" x2="232" y1="532.7461" y2="573.7012"/><line style="stroke:#383838;stroke-width:1.0;" x1="232" x2="232" y1="573.7012" y2="763.209"/><line style="stroke:#383838;stroke-width:1.0;" x1="529.5" x2="529.5" y1="84.4883" y2="226.041"/><line style="stroke:#383838;stroke-width:1.0;stroke-dasharray:1.0,4.0;" x1="529.5" x2="529.5" y1="226.041" y2="266.9961"/><line style="stroke:#383838;stroke-width:1.0;" x1="529.5" x2="529.5" y1="266.9961" y2="438.1699"/><line style="stroke:#383838;stroke-width:1.0;stroke-dasharray:1.0,4.0;" x1="529.5" x2="529.5" y1="438.1699" y2="479.125"/><line style="stroke:#383838;stroke-width:1.0;" x1="529.5" x2="529.5" y1="479.125" y2="532.7461"/><line style="stroke:#383838;stroke-width:1.0;stroke-dasharray:1.0,4.0;" x1="529.5" x2="529.5" y1="532.7461" y2="573.7012"/><line style="stroke:#383838;stroke-width:1.0;" x1="529.5" x2="529.5" y1="573.7012" y2="763.209"/><line style="stroke:#383838;stroke-width:1.0;" x1="831.5" x2="831.5" y1="84.4883" y2="226.041"/><line style="stroke:#383838;stroke-width:1.0;stroke-dasharray:1.0,4.0;" x1="831.5" x2="831.5" y1="226.041" y2="266.9961"/><line style="stroke:#383838;stroke-width:1.0;" x1="831.5" x2="831.5" y1="266.9961" y2="438.1699"/><line style="stroke:#383838;stroke-width:1.0;stroke-dasharray:1.0,4.0;" x1="831.5" x2="831.5" y1="438.1699" y2="479.125"/><line style="stroke:#383838;stroke-width:1.0;" x1="831.5" x2="831.5" y1="479.125" y2="532.7461"/><line style="stroke:#383838;stroke-width:1.0;stroke-dasharray:1.0,4.0;" x1="831.5" x2="831.5" y1="532.7461" y2="573.7012"/><line style="stroke:#383838;stroke-width:1.0;" x1="831.5" x2="831.5" y1="573.7012" y2="763.209"/><text fill="#000000" font-family="sans-serif" font-size="14" lengthAdjust="spacing" textLength="149" x="5" y="81.5352">Professor Jason Smith</text><ellipse cx="82.5" cy="15" fill="#F8F8F8" rx="8" ry="8" style="stroke:#383838;stroke-width:2.0;"/><path d="M82.5,23 L82.5,50 M69.5,31 L95.5,31 M82.5,50 L69.5,65 M82.5,50 L95.5,65 " fill="none" style="stroke:#383838;stroke-width:2.0;"/><text fill="#000000" font-family="sans-serif" font-size="14" lengthAdjust="spacing" textLength="149" x="5" y="775.7441">Professor Jason Smith</text><ellipse cx="82.5" cy="788.6973" fill="#F8F8F8" rx="8" ry="8" style="stroke:#383838;stroke-width:2.0;"/><path d="M82.5,796.6973 L82.5,823.6973 M69.5,804.6973 L95.5,804.6973 M82.5,823.6973 L69.5,838.6973 M82.5,823.6973 L95.5,838.6973 " fill="none" style="stroke:#383838;stroke-width:2.0;"/><text fill="#000000" font-family="sans-serif" font-size="14" lengthAdjust="spacing" textLength="69" x="195" y="81.5352">Requester</text><ellipse cx="232.5" cy="15" fill="#F8F8F8" rx="8" ry="8" style="stroke:#383838;stroke-width:2.0;"/><path d="M232.5,23 L232.5,50 M219.5,31 L245.5,31 M232.5,50 L219.5,65 M232.5,50 L245.5,65 " fill="none" style="stroke:#383838;stroke-width:2.0;"/><text fill="#000000" font-family="sans-serif" font-size="14" lengthAdjust="spacing" textLength="69" x="195" y="775.7441">Requester</text><ellipse cx="232.5" cy="788.6973" fill="#F8F8F8" rx="8" ry="8" style="stroke:#383838;stroke-width:2.0;"/><path d="M232.5,796.6973 L232.5,823.6973 M219.5,804.6973 L245.5,804.6973 M232.5,823.6973 L219.5,838.6973 M232.5,823.6973 L245.5,838.6973 " fill="none" style="stroke:#383838;stroke-width:2.0;"/><text fill="#000000" font-family="sans-serif" font-size="14" lengthAdjust="spacing" textLength="88" x="482.5" y="81.5352">Pratik Bhusal</text><ellipse cx="529.5" cy="15" fill="#F8F8F8" rx="8" ry="8" style="stroke:#383838;stroke-width:2.0;"/><path d="M529.5,23 L529.5,50 M516.5,31 L542.5,31 M529.5,50 L516.5,65 M529.5,50 L542.5,65 " fill="none" style="stroke:#383838;stroke-width:2.0;"/><text fill="#000000" font-family="sans-serif" font-size="14" lengthAdjust="spacing" textLength="88" x="482.5" y="775.7441">Pratik Bhusal</text><ellipse cx="529.5" cy="788.6973" fill="#F8F8F8" rx="8" ry="8" style="stroke:#383838;stroke-width:2.0;"/><path d="M529.5,796.6973 L529.5,823.6973 M516.5,804.6973 L542.5,804.6973 M529.5,823.6973 L516.5,838.6973 M529.5,823.6973 L542.5,838.6973 " fill="none" style="stroke:#383838;stroke-width:2.0;"/><text fill="#000000" font-family="sans-serif" font-size="14" lengthAdjust="spacing" textLength="56" x="800.5" y="81.5352">Referrer</text><ellipse cx="831.5" cy="15" fill="#F8F8F8" rx="8" ry="8" style="stroke:#383838;stroke-width:2.0;"/><path d="M831.5,23 L831.5,50 M818.5,31 L844.5,31 M831.5,50 L818.5,65 M831.5,50 L844.5,65 " fill="none" style="stroke:#383838;stroke-width:2.0;"/><text fill="#000000" font-family="sans-serif" font-size="14" lengthAdjust="spacing" textLength="56" x="800.5" y="775.7441">Referrer</text><ellipse cx="831.5" cy="788.6973" fill="#F8F8F8" rx="8" ry="8" style="stroke:#383838;stroke-width:2.0;"/><path d="M831.5,796.6973 L831.5,823.6973 M818.5,804.6973 L844.5,804.6973 M831.5,823.6973 L818.5,838.6973 M831.5,823.6973 L844.5,838.6973 " fill="none" style="stroke:#383838;stroke-width:2.0;"/><rect fill="#FFFFFF" height="95.2422" style="stroke:#383838;stroke-width:1.0;" width="10" x="77.5" y="115.7988"/><rect fill="#FFFFFF" height="8" style="stroke:#FFFFFF;stroke-width:1.0;" width="10" x="826.5" y="524.7461"/><line style="stroke:#383838;stroke-width:1.0;" x1="826.5" x2="826.5" y1="524.7461" y2="532.7461"/><line style="stroke:#383838;stroke-width:1.0;" x1="836.5" x2="836.5" y1="524.7461" y2="532.7461"/><line style="stroke:#383838;stroke-width:1.0;" x1="826.5" x2="836.5" y1="524.7461" y2="524.7461"/><rect fill="#FFFFFF" height="114.1973" style="stroke:#FFFFFF;stroke-width:1.0;" width="10" x="826.5" y="573.7012"/><line style="stroke:#383838;stroke-width:1.0;" x1="826.5" x2="826.5" y1="573.7012" y2="687.8984"/><line style="stroke:#383838;stroke-width:1.0;" x1="836.5" x2="836.5" y1="573.7012" y2="687.8984"/><line style="stroke:#383838;stroke-width:1.0;" x1="826.5" x2="836.5" y1="687.8984" y2="687.8984"/><polygon fill="#383838" points="98.5,111.7988,88.5,115.7988,98.5,119.7988,94.5,115.7988" style="stroke:#383838;stroke-width:1.0;"/><line style="stroke:#383838;stroke-width:1.0;" x1="92.5" x2="528.5" y1="115.7988" y2="115.7988"/><text fill="#000000" font-family="sans-serif" font-size="13" font-weight="bold" lengthAdjust="spacing" textLength="9" x="104.5" y="111.0566">1</text><text fill="#000000" font-family="sans-serif" font-size="13" lengthAdjust="spacing" textLength="143" x="117.5" y="111.0566">Send list of companies</text><polygon fill="#383838" points="517.5,141.1094,527.5,145.1094,517.5,149.1094,521.5,145.1094" style="stroke:#383838;stroke-width:1.0;"/><line style="stroke:#383838;stroke-width:1.0;" x1="87.5" x2="523.5" y1="145.1094" y2="145.1094"/><text fill="#000000" font-family="sans-serif" font-size="13" font-weight="bold" lengthAdjust="spacing" textLength="9" x="94.5" y="140.3672">2</text><text fill="#000000" font-family="sans-serif" font-size="13" lengthAdjust="spacing" textLength="177" x="107.5" y="140.3672">Send list of eligible mentors</text><line style="stroke:#383838;stroke-width:1.0;" x1="87.5" x2="129.5" y1="210.041" y2="210.041"/><line style="stroke:#383838;stroke-width:1.0;" x1="129.5" x2="129.5" y1="210.041" y2="223.041"/><line style="stroke:#383838;stroke-width:1.0;" x1="82.5" x2="129.5" y1="223.041" y2="223.041"/><polygon fill="#383838" points="92.5,219.041,82.5,223.041,92.5,227.041,88.5,223.041" style="stroke:#383838;stroke-width:1.0;"/><text fill="#000000" font-family="sans-serif" font-size="13" font-weight="bold" lengthAdjust="spacing" textLength="9" x="94.5" y="189.9883">3</text><text fill="#000000" font-family="sans-serif" font-size="13" lengthAdjust="spacing" textLength="113" x="107.5" y="174.6777">Post form to main</text><text fill="#000000" font-family="sans-serif" font-size="13" lengthAdjust="spacing" textLength="98" x="107.5" y="189.9883">communication</text><text fill="#000000" font-family="sans-serif" font-size="13" lengthAdjust="spacing" textLength="106" x="107.5" y="205.2988">service of choice</text><text fill="#000000" font-family="sans-serif" font-size="11" lengthAdjust="spacing" textLength="128" x="393" y="250.6758">Wait for referral request</text><polygon fill="#383838" points="517.5,299.6172,527.5,303.6172,517.5,307.6172,521.5,303.6172" style="stroke:#383838;stroke-width:1.0;"/><line style="stroke:#383838;stroke-width:1.0;" x1="232.5" x2="523.5" y1="303.6172" y2="303.6172"/><text fill="#000000" font-family="sans-serif" font-size="13" font-weight="bold" lengthAdjust="spacing" textLength="9" x="239.5" y="291.2197">4</text><text fill="#000000" font-family="sans-serif" font-size="13" lengthAdjust="spacing" textLength="80" x="252.5" y="283.5645">Send resume</text><text fill="#000000" font-family="sans-serif" font-size="13" lengthAdjust="spacing" textLength="260" x="252.5" y="298.875">and list of companies to request referrals</text><line style="stroke:#383838;stroke-width:1.0;" x1="529.5" x2="571.5" y1="332.9277" y2="332.9277"/><line style="stroke:#383838;stroke-width:1.0;" x1="571.5" x2="571.5" y1="332.9277" y2="345.9277"/><line style="stroke:#383838;stroke-width:1.0;" x1="530.5" x2="571.5" y1="345.9277" y2="345.9277"/><polygon fill="#383838" points="540.5,341.9277,530.5,345.9277,540.5,349.9277,536.5,345.9277" style="stroke:#383838;stroke-width:1.0;"/><text fill="#000000" font-family="sans-serif" font-size="13" font-weight="bold" lengthAdjust="spacing" textLength="9" x="536.5" y="328.1855">5</text><text fill="#000000" font-family="sans-serif" font-size="13" lengthAdjust="spacing" textLength="180" x="549.5" y="328.1855">Check if requester is eligible</text><path d="M155,360.9277 L217,360.9277 L217,367.9277 L207,377.9277 L155,377.9277 L155,360.9277 " fill="#EEEEEE" style="stroke:#000000;stroke-width:1.0;"/><rect fill="none" height="385.2813" style="stroke:#000000;stroke-width:2.0;" width="747.5" x="155" y="360.9277"/><text fill="#000000" font-family="sans-serif" font-size="13" font-weight="bold" lengthAdjust="spacing" textLength="17" x="170" y="374.4961">alt</text><text fill="#000000" font-family="sans-serif" font-size="11" font-weight="bold" lengthAdjust="spacing" textLength="136" x="232" y="373.5625">[if Requester is eligible]</text><polygon fill="#383838" points="243.5,426.1699,233.5,430.1699,243.5,434.1699,239.5,430.1699" style="stroke:#383838;stroke-width:1.0;"/><line style="stroke:#383838;stroke-width:1.0;" x1="237.5" x2="528.5" y1="430.1699" y2="430.1699"/><text fill="#000000" font-family="sans-serif" font-size="13" font-weight="bold" lengthAdjust="spacing" textLength="9" x="249.5" y="410.1172">6</text><text fill="#000000" font-family="sans-serif" font-size="13" lengthAdjust="spacing" textLength="204" x="262.5" y="394.8066">Notify them that they are eligble</text><text fill="#000000" font-family="sans-serif" font-size="13" lengthAdjust="spacing" textLength="143" x="262.5" y="410.1172">and that they will send</text><text fill="#000000" font-family="sans-serif" font-size="13" lengthAdjust="spacing" textLength="100" x="262.5" y="425.4277">referral request.</text><text fill="#000000" font-family="sans-serif" font-size="11" lengthAdjust="spacing" textLength="207" x="353.5" y="462.8047">Wait for Pratik actually having free time</text><path d="M165,486.125 L239,486.125 L239,493.125 L229,503.125 L165,503.125 L165,486.125 " fill="#EEEEEE" style="stroke:#000000;stroke-width:1.0;"/><rect fill="none" height="253.084" style="stroke:#000000;stroke-width:2.0;" width="727.5" x="165" y="486.125"/><text fill="#000000" font-family="sans-serif" font-size="13" font-weight="bold" lengthAdjust="spacing" textLength="29" x="180" y="499.6934">loop</text><text fill="#000000" font-family="sans-serif" font-size="11" font-weight="bold" lengthAdjust="spacing" textLength="199" x="254" y="498.7598">[for each company referral request]</text><polygon fill="#383838" points="814.5,520.7461,824.5,524.7461,814.5,528.7461,818.5,524.7461" style="stroke:#383838;stroke-width:1.0;"/><line style="stroke:#383838;stroke-width:1.0;" x1="529.5" x2="820.5" y1="524.7461" y2="524.7461"/><text fill="#000000" font-family="sans-serif" font-size="13" font-weight="bold" lengthAdjust="spacing" textLength="9" x="536.5" y="520.0039">7</text><text fill="#000000" font-family="sans-serif" font-size="13" lengthAdjust="spacing" textLength="130" x="549.5" y="520.0039">Send referral request</text><text fill="#000000" font-family="sans-serif" font-size="11" lengthAdjust="spacing" textLength="185" x="364.5" y="557.3809">Wait for Referrer to look at request</text><path d="M175,580.7012 L237,580.7012 L237,587.7012 L227,597.7012 L175,597.7012 L175,580.7012 " fill="#EEEEEE" style="stroke:#000000;stroke-width:1.0;"/><rect fill="none" height="151.5078" style="stroke:#000000;stroke-width:2.0;" width="707.5" x="175" y="580.7012"/><text fill="#000000" font-family="sans-serif" font-size="13" font-weight="bold" lengthAdjust="spacing" textLength="17" x="190" y="594.2695">alt</text><text fill="#000000" font-family="sans-serif" font-size="11" font-weight="bold" lengthAdjust="spacing" textLength="266" x="252" y="593.3359">[if Referrer wants to give referral to Requester]</text><path d="M185,605.0117 L247,605.0117 L247,612.0117 L237,622.0117 L185,622.0117 L185,605.0117 " fill="#EEEEEE" style="stroke:#000000;stroke-width:1.0;"/><rect fill="none" height="120.1973" style="stroke:#000000;stroke-width:2.0;" width="687.5" x="185" y="605.0117"/><text fill="#000000" font-family="sans-serif" font-size="13" font-weight="bold" lengthAdjust="spacing" textLength="17" x="200" y="618.5801">alt</text><text fill="#000000" font-family="sans-serif" font-size="11" font-weight="bold" lengthAdjust="spacing" textLength="276" x="262" y="617.6465">[if Referrer wants to directly talk with Requester]</text><polygon fill="#383838" points="243.5,639.6328,233.5,643.6328,243.5,647.6328,239.5,643.6328" style="stroke:#383838;stroke-width:1.0;"/><line style="stroke:#383838;stroke-width:1.0;stroke-dasharray:2.0,2.0;" x1="237.5" x2="825.5" y1="643.6328" y2="643.6328"/><text fill="#000000" font-family="sans-serif" font-size="13" font-weight="bold" lengthAdjust="spacing" textLength="9" x="249.5" y="638.8906">8</text><text fill="#000000" font-family="sans-serif" font-size="13" lengthAdjust="spacing" textLength="416" x="262.5" y="638.8906">Notify about how to finalize the company specific referral process</text><line style="stroke:#000000;stroke-width:1.0;stroke-dasharray:2.0,2.0;" x1="185" x2="872.5" y1="652.6328" y2="652.6328"/><text fill="#000000" font-family="sans-serif" font-size="11" font-weight="bold" lengthAdjust="spacing" textLength="62" x="190" y="663.2676">[otherwise]</text><polygon fill="#383838" points="540.5,683.8984,530.5,687.8984,540.5,691.8984,536.5,687.8984" style="stroke:#383838;stroke-width:1.0;"/><line style="stroke:#383838;stroke-width:1.0;stroke-dasharray:2.0,2.0;" x1="534.5" x2="830.5" y1="687.8984" y2="687.8984"/><text fill="#000000" font-family="sans-serif" font-size="13" font-weight="bold" lengthAdjust="spacing" textLength="9" x="546.5" y="683.1563">9</text><text fill="#000000" font-family="sans-serif" font-size="13" lengthAdjust="spacing" textLength="260" x="559.5" y="683.1563">Request Pratik to send final referral steps</text><polygon fill="#383838" points="243.5,713.209,233.5,717.209,243.5,721.209,239.5,717.209" style="stroke:#383838;stroke-width:1.0;"/><line style="stroke:#383838;stroke-width:1.0;stroke-dasharray:2.0,2.0;" x1="237.5" x2="528.5" y1="717.209" y2="717.209"/><text fill="#000000" font-family="sans-serif" font-size="13" font-weight="bold" lengthAdjust="spacing" textLength="18" x="249.5" y="712.4668">10</text><text fill="#000000" font-family="sans-serif" font-size="13" lengthAdjust="spacing" textLength="158" x="271.5" y="712.4668">Notify final referral steps</text><!--MD5=[a8f63ca7e1aa3bd051aec16622738076]
@startuml
' Basic Configuration
skinparam monochrome true
skinparam shadowing false
autonumber

actor "Professor Jason Smith" as boss
actor "Requester" as requester
actor "Pratik Bhusal" as pratik
actor "Referrer" as referrer

pratik -> boss: Send list of companies
activate boss

boss -> pratik: Send list of eligible mentors

boss -> boss: Post form to main\ncommunication\nservice of choice

deactivate boss

...Wait for referral request...

requester -> pratik: Send resume\nand list of companies to request referrals

pratik -> pratik: Check if requester is eligible


alt if Requester is eligible
        requester <- pratik: Notify them that they are eligble\nand that they will send\nreferral request.

    ...Wait for Pratik actually having free time...

    loop for each company referral request
                pratik -> referrer: Send referral request
        activate referrer

        ...Wait for Referrer to look at request...

        alt if Referrer wants to give referral to Requester
                alt if Referrer wants to directly talk with Requester
                requester <- - referrer: Notify about how to finalize the company specific referral process
            else otherwise
                pratik <- - referrer: Request Pratik to send final referral steps
                deactivate referrer
                requester <- - pratik: Notify final referral steps
            end
        end
    end
end

@enduml

@startuml
skinparam monochrome true
skinparam shadowing false
autonumber

actor "Professor Jason Smith" as boss
actor "Requester" as requester
actor "Pratik Bhusal" as pratik
actor "Referrer" as referrer

pratik -> boss: Send list of companies
activate boss

boss -> pratik: Send list of eligible mentors

boss -> boss: Post form to main\ncommunication\nservice of choice

deactivate boss

...Wait for referral request...

requester -> pratik: Send resume\nand list of companies to request referrals

pratik -> pratik: Check if requester is eligible


alt if Requester is eligible
        requester <- pratik: Notify them that they are eligble\nand that they will send\nreferral request.

    ...Wait for Pratik actually having free time...

    loop for each company referral request
                pratik -> referrer: Send referral request
        activate referrer

        ...Wait for Referrer to look at request...

        alt if Referrer wants to give referral to Requester
                alt if Referrer wants to directly talk with Requester
                requester <- - referrer: Notify about how to finalize the company specific referral process
            else otherwise
                pratik <- - referrer: Request Pratik to send final referral steps
                deactivate referrer
                requester <- - pratik: Notify final referral steps
            end
        end
    end
end

@enduml

PlantUML version 1.2021.9(Sun Jul 25 05:13:56 CDT 2021)
(GPL source distribution)
Java Runtime: OpenJDK Runtime Environment
JVM: OpenJDK 64-Bit Server VM
Default Encoding: UTF-8
Language: en
Country: US
--></g></svg>