<?xml version="1.0" encoding="UTF-8" standalone="no"?><svg xmlns="http://www.w3.org/2000/svg" xmlns:xlink="http://www.w3.org/1999/xlink" contentScriptType="application/ecmascript" contentStyleType="text/css" height="319px" preserveAspectRatio="none" style="width:609px;height:319px;background:#FFFFFF;" version="1.1" viewBox="0 0 609 319" width="609px" zoomAndPan="magnify"><defs/><g><rect fill="#FFFFFF" height="119.3359" style="stroke:#000000;stroke-width:2.0;" width="592.5" x="10" y="101.2969"/><rect fill="#FFFFFF" height="73.0703" style="stroke:none;stroke-width:1.0;" width="592.5" x="10" y="147.5625"/><line style="stroke:#383838;stroke-width:1.0;stroke-dasharray:5.0,5.0;" x1="59" x2="59" y1="84.2969" y2="237.6328"/><line style="stroke:#383838;stroke-width:1.0;stroke-dasharray:5.0,5.0;" x1="261" x2="261" y1="84.2969" y2="237.6328"/><line style="stroke:#383838;stroke-width:1.0;stroke-dasharray:5.0,5.0;" x1="561.5" x2="561.5" y1="84.2969" y2="237.6328"/><text fill="#000000" font-family="sans-serif" font-size="14" lengthAdjust="spacing" textLength="73" x="20" y="80.9951">Requester</text><ellipse cx="59.5" cy="15" fill="#F8F8F8" rx="8" ry="8" style="stroke:#383838;stroke-width:2.0;"/><path d="M59.5,23 L59.5,50 M46.5,31 L72.5,31 M59.5,50 L46.5,65 M59.5,50 L72.5,65 " fill="none" style="stroke:#383838;stroke-width:2.0;"/><text fill="#000000" font-family="sans-serif" font-size="14" lengthAdjust="spacing" textLength="73" x="20" y="249.6279">Requester</text><ellipse cx="59.5" cy="262.9297" fill="#F8F8F8" rx="8" ry="8" style="stroke:#383838;stroke-width:2.0;"/><path d="M59.5,270.9297 L59.5,297.9297 M46.5,278.9297 L72.5,278.9297 M59.5,297.9297 L46.5,312.9297 M59.5,297.9297 L72.5,312.9297 " fill="none" style="stroke:#383838;stroke-width:2.0;"/><text fill="#000000" font-family="sans-serif" font-size="14" lengthAdjust="spacing" textLength="89" x="214" y="80.9951">Pratik Bhusal</text><ellipse cx="261.5" cy="15" fill="#F8F8F8" rx="8" ry="8" style="stroke:#383838;stroke-width:2.0;"/><path d="M261.5,23 L261.5,50 M248.5,31 L274.5,31 M261.5,50 L248.5,65 M261.5,50 L274.5,65 " fill="none" style="stroke:#383838;stroke-width:2.0;"/><text fill="#000000" font-family="sans-serif" font-size="14" lengthAdjust="spacing" textLength="89" x="214" y="249.6279">Pratik Bhusal</text><ellipse cx="261.5" cy="262.9297" fill="#F8F8F8" rx="8" ry="8" style="stroke:#383838;stroke-width:2.0;"/><path d="M261.5,270.9297 L261.5,297.9297 M248.5,278.9297 L274.5,278.9297 M261.5,297.9297 L248.5,312.9297 M261.5,297.9297 L274.5,312.9297 " fill="none" style="stroke:#383838;stroke-width:2.0;"/><text fill="#000000" font-family="sans-serif" font-size="14" lengthAdjust="spacing" textLength="56" x="530.5" y="80.9951">Referrer</text><ellipse cx="561.5" cy="15" fill="#F8F8F8" rx="8" ry="8" style="stroke:#383838;stroke-width:2.0;"/><path d="M561.5,23 L561.5,50 M548.5,31 L574.5,31 M561.5,50 L548.5,65 M561.5,50 L574.5,65 " fill="none" style="stroke:#383838;stroke-width:2.0;"/><text fill="#000000" font-family="sans-serif" font-size="14" lengthAdjust="spacing" textLength="56" x="530.5" y="249.6279">Referrer</text><ellipse cx="561.5" cy="262.9297" fill="#F8F8F8" rx="8" ry="8" style="stroke:#383838;stroke-width:2.0;"/><path d="M561.5,270.9297 L561.5,297.9297 M548.5,278.9297 L574.5,278.9297 M561.5,297.9297 L548.5,312.9297 M561.5,297.9297 L574.5,312.9297 " fill="none" style="stroke:#383838;stroke-width:2.0;"/><path d="M10,101.2969 L70,101.2969 L70,108.2969 L60,118.2969 L10,118.2969 L10,101.2969 " fill="#EEEEEE" style="stroke:#000000;stroke-width:1.0;"/><rect fill="none" height="119.3359" style="stroke:#000000;stroke-width:2.0;" width="592.5" x="10" y="101.2969"/><text fill="#000000" font-family="sans-serif" font-size="13" font-weight="bold" lengthAdjust="spacing" textLength="10" x="25" y="114.3638">if</text><text fill="#000000" font-family="sans-serif" font-size="11" font-weight="bold" lengthAdjust="spacing" textLength="303" x="85" y="113.5073">[Referrer wants to directly talk with Requester]</text><polygon fill="#383838" points="70.5,135.5625,60.5,139.5625,70.5,143.5625,66.5,139.5625" style="stroke:#383838;stroke-width:1.0;"/><line style="stroke:#383838;stroke-width:1.0;stroke-dasharray:2.0,2.0;" x1="64.5" x2="560.5" y1="139.5625" y2="139.5625"/><text fill="#000000" font-family="sans-serif" font-size="13" font-weight="bold" lengthAdjust="spacing" textLength="9" x="76.5" y="134.4966">8</text><text fill="#000000" font-family="sans-serif" font-size="13" lengthAdjust="spacing" textLength="156" x="89.5" y="134.4966">Notify final referral steps</text><line style="stroke:#000000;stroke-width:1.0;stroke-dasharray:2.0,2.0;" x1="10" x2="602.5" y1="148.5625" y2="148.5625"/><text fill="#000000" font-family="sans-serif" font-size="11" font-weight="bold" lengthAdjust="spacing" textLength="74" x="15" y="158.7729">[otherwise]</text><polygon fill="#383838" points="272.5,179.5,262.5,183.5,272.5,187.5,268.5,183.5" style="stroke:#383838;stroke-width:1.0;"/><line style="stroke:#383838;stroke-width:1.0;stroke-dasharray:2.0,2.0;" x1="266.5" x2="560.5" y1="183.5" y2="183.5"/><text fill="#000000" font-family="sans-serif" font-size="13" font-weight="bold" lengthAdjust="spacing" textLength="9" x="278.5" y="178.4341">9</text><text fill="#000000" font-family="sans-serif" font-size="13" lengthAdjust="spacing" textLength="263" x="291.5" y="178.4341">Request Pratik to send final referral steps</text><polygon fill="#383838" points="70.5,208.6328,60.5,212.6328,70.5,216.6328,66.5,212.6328" style="stroke:#383838;stroke-width:1.0;"/><line style="stroke:#383838;stroke-width:1.0;stroke-dasharray:2.0,2.0;" x1="64.5" x2="260.5" y1="212.6328" y2="212.6328"/><text fill="#000000" font-family="sans-serif" font-size="13" font-weight="bold" lengthAdjust="spacing" textLength="18" x="76.5" y="207.5669">10</text><text fill="#000000" font-family="sans-serif" font-size="13" lengthAdjust="spacing" textLength="156" x="98.5" y="207.5669">Notify final referral steps</text><!--MD5=[681b65dfa0ec47eff4efca4e885c13a7]
@startuml
' Basic Configuration
skinparam monochrome true
skinparam shadowing false
autonumber 8

actor "Requester" as requester
actor "Pratik Bhusal" as pratik
actor "Referrer" as referrer

group if [Referrer wants to directly talk with Requester]
    requester <- - referrer: Notify final referral steps
else otherwise
    pratik <- - referrer: Request Pratik to send final referral steps
    requester <- - pratik: Notify final referral steps
end

@enduml

@startuml
skinparam monochrome true
skinparam shadowing false
autonumber 8

actor "Requester" as requester
actor "Pratik Bhusal" as pratik
actor "Referrer" as referrer

group if [Referrer wants to directly talk with Requester]
    requester <- - referrer: Notify final referral steps
else otherwise
    pratik <- - referrer: Request Pratik to send final referral steps
    requester <- - pratik: Notify final referral steps
end

@enduml

PlantUML version 1.2021.9(Sun Jul 25 05:13:56 CDT 2021)
(GPL source distribution)
Java Runtime: OpenJDK Runtime Environment
JVM: OpenJDK 64-Bit Server VM
Default Encoding: UTF-8
Language: en
Country: US
--></g></svg>