<?xml version="1.0" encoding="UTF-8" standalone="no"?><svg xmlns="http://www.w3.org/2000/svg" xmlns:xlink="http://www.w3.org/1999/xlink" contentScriptType="application/ecmascript" contentStyleType="text/css" height="561px" preserveAspectRatio="none" style="width:813px;height:561px;background:#FFFFFF;" version="1.1" viewBox="0 0 813 561" width="813px" zoomAndPan="magnify"><defs/><g><rect fill="#FFFFFF" height="58.2656" style="stroke:#383838;stroke-width:1.0;" width="10" x="78" y="115.4297"/><rect fill="#FFFFFF" height="146.4688" style="stroke:#000000;stroke-width:2.0;" width="595.5" x="211.5" y="315.8984"/><line style="stroke:#383838;stroke-width:1.0;" x1="83" x2="83" y1="84.2969" y2="181.6953"/><line style="stroke:#383838;stroke-width:1.0;stroke-dasharray:1.0,4.0;" x1="83" x2="83" y1="181.6953" y2="222.5"/><line style="stroke:#383838;stroke-width:1.0;" x1="83" x2="83" y1="222.5" y2="392.4297"/><line style="stroke:#383838;stroke-width:1.0;stroke-dasharray:1.0,4.0;" x1="83" x2="83" y1="392.4297" y2="433.2344"/><line style="stroke:#383838;stroke-width:1.0;" x1="83" x2="83" y1="433.2344" y2="479.3672"/><line style="stroke:#383838;stroke-width:1.0;" x1="260.5" x2="260.5" y1="84.2969" y2="181.6953"/><line style="stroke:#383838;stroke-width:1.0;stroke-dasharray:1.0,4.0;" x1="260.5" x2="260.5" y1="181.6953" y2="222.5"/><line style="stroke:#383838;stroke-width:1.0;" x1="260.5" x2="260.5" y1="222.5" y2="392.4297"/><line style="stroke:#383838;stroke-width:1.0;stroke-dasharray:1.0,4.0;" x1="260.5" x2="260.5" y1="392.4297" y2="433.2344"/><line style="stroke:#383838;stroke-width:1.0;" x1="260.5" x2="260.5" y1="433.2344" y2="479.3672"/><line style="stroke:#383838;stroke-width:1.0;" x1="560.5" x2="560.5" y1="84.2969" y2="181.6953"/><line style="stroke:#383838;stroke-width:1.0;stroke-dasharray:1.0,4.0;" x1="560.5" x2="560.5" y1="181.6953" y2="222.5"/><line style="stroke:#383838;stroke-width:1.0;" x1="560.5" x2="560.5" y1="222.5" y2="392.4297"/><line style="stroke:#383838;stroke-width:1.0;stroke-dasharray:1.0,4.0;" x1="560.5" x2="560.5" y1="392.4297" y2="433.2344"/><line style="stroke:#383838;stroke-width:1.0;" x1="560.5" x2="560.5" y1="433.2344" y2="479.3672"/><line style="stroke:#383838;stroke-width:1.0;" x1="766" x2="766" y1="84.2969" y2="181.6953"/><line style="stroke:#383838;stroke-width:1.0;stroke-dasharray:1.0,4.0;" x1="766" x2="766" y1="181.6953" y2="222.5"/><line style="stroke:#383838;stroke-width:1.0;" x1="766" x2="766" y1="222.5" y2="392.4297"/><line style="stroke:#383838;stroke-width:1.0;stroke-dasharray:1.0,4.0;" x1="766" x2="766" y1="392.4297" y2="433.2344"/><line style="stroke:#383838;stroke-width:1.0;" x1="766" x2="766" y1="433.2344" y2="479.3672"/><text fill="#000000" font-family="sans-serif" font-size="14" lengthAdjust="spacing" textLength="150" x="5" y="80.9951">Professor Jason Smith</text><ellipse cx="83" cy="15" fill="#F8F8F8" rx="8" ry="8" style="stroke:#383838;stroke-width:2.0;"/><path d="M83,23 L83,50 M70,31 L96,31 M83,50 L70,65 M83,50 L96,65 " fill="none" style="stroke:#383838;stroke-width:2.0;"/><text fill="#000000" font-family="sans-serif" font-size="14" lengthAdjust="spacing" textLength="150" x="5" y="491.3623">Professor Jason Smith</text><ellipse cx="83" cy="504.6641" fill="#F8F8F8" rx="8" ry="8" style="stroke:#383838;stroke-width:2.0;"/><path d="M83,512.6641 L83,539.6641 M70,520.6641 L96,520.6641 M83,539.6641 L70,554.6641 M83,539.6641 L96,554.6641 " fill="none" style="stroke:#383838;stroke-width:2.0;"/><text fill="#000000" font-family="sans-serif" font-size="14" lengthAdjust="spacing" textLength="73" x="221.5" y="80.9951">Requester</text><ellipse cx="261" cy="15" fill="#F8F8F8" rx="8" ry="8" style="stroke:#383838;stroke-width:2.0;"/><path d="M261,23 L261,50 M248,31 L274,31 M261,50 L248,65 M261,50 L274,65 " fill="none" style="stroke:#383838;stroke-width:2.0;"/><text fill="#000000" font-family="sans-serif" font-size="14" lengthAdjust="spacing" textLength="73" x="221.5" y="491.3623">Requester</text><ellipse cx="261" cy="504.6641" fill="#F8F8F8" rx="8" ry="8" style="stroke:#383838;stroke-width:2.0;"/><path d="M261,512.6641 L261,539.6641 M248,520.6641 L274,520.6641 M261,539.6641 L248,554.6641 M261,539.6641 L274,554.6641 " fill="none" style="stroke:#383838;stroke-width:2.0;"/><text fill="#000000" font-family="sans-serif" font-size="14" lengthAdjust="spacing" textLength="89" x="513.5" y="80.9951">Pratik Bhusal</text><ellipse cx="561" cy="15" fill="#F8F8F8" rx="8" ry="8" style="stroke:#383838;stroke-width:2.0;"/><path d="M561,23 L561,50 M548,31 L574,31 M561,50 L548,65 M561,50 L574,65 " fill="none" style="stroke:#383838;stroke-width:2.0;"/><text fill="#000000" font-family="sans-serif" font-size="14" lengthAdjust="spacing" textLength="89" x="513.5" y="491.3623">Pratik Bhusal</text><ellipse cx="561" cy="504.6641" fill="#F8F8F8" rx="8" ry="8" style="stroke:#383838;stroke-width:2.0;"/><path d="M561,512.6641 L561,539.6641 M548,520.6641 L574,520.6641 M561,539.6641 L548,554.6641 M561,539.6641 L574,554.6641 " fill="none" style="stroke:#383838;stroke-width:2.0;"/><text fill="#000000" font-family="sans-serif" font-size="14" lengthAdjust="spacing" textLength="56" x="735" y="80.9951">Referrer</text><ellipse cx="766" cy="15" fill="#F8F8F8" rx="8" ry="8" style="stroke:#383838;stroke-width:2.0;"/><path d="M766,23 L766,50 M753,31 L779,31 M766,50 L753,65 M766,50 L779,65 " fill="none" style="stroke:#383838;stroke-width:2.0;"/><text fill="#000000" font-family="sans-serif" font-size="14" lengthAdjust="spacing" textLength="56" x="735" y="491.3623">Referrer</text><ellipse cx="766" cy="504.6641" fill="#F8F8F8" rx="8" ry="8" style="stroke:#383838;stroke-width:2.0;"/><path d="M766,512.6641 L766,539.6641 M753,520.6641 L779,520.6641 M766,539.6641 L753,554.6641 M766,539.6641 L779,554.6641 " fill="none" style="stroke:#383838;stroke-width:2.0;"/><rect fill="#FFFFFF" height="58.2656" style="stroke:#383838;stroke-width:1.0;" width="10" x="78" y="115.4297"/><polygon fill="#383838" points="99,111.4297,89,115.4297,99,119.4297,95,115.4297" style="stroke:#383838;stroke-width:1.0;"/><line style="stroke:#383838;stroke-width:1.0;" x1="93" x2="560" y1="115.4297" y2="115.4297"/><text fill="#000000" font-family="sans-serif" font-size="13" font-weight="bold" lengthAdjust="spacing" textLength="9" x="105" y="110.3638">1</text><text fill="#000000" font-family="sans-serif" font-size="13" lengthAdjust="spacing" textLength="133" x="118" y="110.3638">Send requester form</text><polygon fill="#383838" points="249,140.5625,259,144.5625,249,148.5625,253,144.5625" style="stroke:#383838;stroke-width:1.0;"/><line style="stroke:#383838;stroke-width:1.0;" x1="88" x2="255" y1="144.5625" y2="144.5625"/><text fill="#000000" font-family="sans-serif" font-size="13" font-weight="bold" lengthAdjust="spacing" textLength="9" x="95" y="139.4966">2</text><text fill="#000000" font-family="sans-serif" font-size="13" lengthAdjust="spacing" textLength="136" x="108" y="139.4966">Notify form existance</text><polygon fill="#383838" points="549,169.6953,559,173.6953,549,177.6953,553,173.6953" style="stroke:#383838;stroke-width:1.0;"/><line style="stroke:#383838;stroke-width:1.0;" x1="83" x2="555" y1="173.6953" y2="173.6953"/><text fill="#000000" font-family="sans-serif" font-size="13" font-weight="bold" lengthAdjust="spacing" textLength="9" x="90" y="168.6294">3</text><text fill="#000000" font-family="sans-serif" font-size="13" lengthAdjust="spacing" textLength="177" x="103" y="168.6294">Send list of eligible mentors</text><text fill="#000000" font-family="sans-serif" font-size="11" lengthAdjust="spacing" textLength="138" x="355.5" y="205.9058">Wait for referral request</text><polygon fill="#383838" points="549,254.7656,559,258.7656,549,262.7656,553,258.7656" style="stroke:#383838;stroke-width:1.0;"/><line style="stroke:#383838;stroke-width:1.0;" x1="261" x2="555" y1="258.7656" y2="258.7656"/><text fill="#000000" font-family="sans-serif" font-size="13" font-weight="bold" lengthAdjust="spacing" textLength="9" x="268" y="246.1333">4</text><text fill="#000000" font-family="sans-serif" font-size="13" lengthAdjust="spacing" textLength="86" x="281" y="238.5669">Send resume</text><text fill="#000000" font-family="sans-serif" font-size="13" lengthAdjust="spacing" textLength="263" x="281" y="253.6997">and list of companies to request referrals</text><line style="stroke:#383838;stroke-width:1.0;" x1="561" x2="603" y1="287.8984" y2="287.8984"/><line style="stroke:#383838;stroke-width:1.0;" x1="603" x2="603" y1="287.8984" y2="300.8984"/><line style="stroke:#383838;stroke-width:1.0;" x1="562" x2="603" y1="300.8984" y2="300.8984"/><polygon fill="#383838" points="572,296.8984,562,300.8984,572,304.8984,568,300.8984" style="stroke:#383838;stroke-width:1.0;"/><text fill="#000000" font-family="sans-serif" font-size="13" font-weight="bold" lengthAdjust="spacing" textLength="9" x="568" y="282.8325">5</text><text fill="#000000" font-family="sans-serif" font-size="13" lengthAdjust="spacing" textLength="178" x="581" y="282.8325">Check if requester is eligible</text><path d="M211.5,315.8984 L271.5,315.8984 L271.5,322.8984 L261.5,332.8984 L211.5,332.8984 L211.5,315.8984 " fill="#EEEEEE" style="stroke:#000000;stroke-width:1.0;"/><rect fill="none" height="146.4688" style="stroke:#000000;stroke-width:2.0;" width="595.5" x="211.5" y="315.8984"/><text fill="#000000" font-family="sans-serif" font-size="13" font-weight="bold" lengthAdjust="spacing" textLength="10" x="226.5" y="328.9653">if</text><text fill="#000000" font-family="sans-serif" font-size="11" font-weight="bold" lengthAdjust="spacing" textLength="127" x="286.5" y="328.1089">[Requester eligible]</text><polygon fill="#383838" points="272,380.4297,262,384.4297,272,388.4297,268,384.4297" style="stroke:#383838;stroke-width:1.0;"/><line style="stroke:#383838;stroke-width:1.0;stroke-dasharray:2.0,2.0;" x1="266" x2="560" y1="384.4297" y2="384.4297"/><text fill="#000000" font-family="sans-serif" font-size="13" font-weight="bold" lengthAdjust="spacing" textLength="9" x="278" y="364.231">6</text><text fill="#000000" font-family="sans-serif" font-size="13" lengthAdjust="spacing" textLength="169" x="291" y="349.0981">Notify that they are eligble</text><text fill="#000000" font-family="sans-serif" font-size="13" lengthAdjust="spacing" textLength="143" x="291" y="364.231">and that they will send</text><text fill="#000000" font-family="sans-serif" font-size="13" lengthAdjust="spacing" textLength="103" x="291" y="379.3638">referral request.</text><text fill="#000000" font-family="sans-serif" font-size="11" lengthAdjust="spacing" textLength="223" x="313" y="416.6401">Wait for Pratik actually having free time</text><polygon fill="#383838" points="754,450.3672,764,454.3672,754,458.3672,758,454.3672" style="stroke:#383838;stroke-width:1.0;"/><line style="stroke:#383838;stroke-width:1.0;" x1="561" x2="760" y1="454.3672" y2="454.3672"/><text fill="#000000" font-family="sans-serif" font-size="13" font-weight="bold" lengthAdjust="spacing" textLength="9" x="568" y="449.3013">7</text><text fill="#000000" font-family="sans-serif" font-size="13" lengthAdjust="spacing" textLength="143" x="581" y="449.3013">Send referral requests</text><!--MD5=[65bc1c2606be546853f909a3d81b1ca0]
@startuml
' Basic Configuration
skinparam monochrome true
skinparam shadowing false
autonumber

actor "Professor Jason Smith" as boss
actor "Requester" as requester
actor "Pratik Bhusal" as pratik
actor "Referrer" as referrer

pratik -> boss: Send requester form
activate boss

boss -> requester: Notify form existance

boss -> pratik: Send list of eligible mentors

deactivate boss

...Wait for referral request...

requester -> pratik: Send resume\nand list of companies to request referrals

pratik -> pratik: Check if requester is eligible


group if [Requester eligible]
    requester <- - pratik: Notify that they are eligble\nand that they will send\nreferral request.

    ...Wait for Pratik actually having free time...

    pratik -> referrer: Send referral requests
end

@enduml

@startuml
skinparam monochrome true
skinparam shadowing false
autonumber

actor "Professor Jason Smith" as boss
actor "Requester" as requester
actor "Pratik Bhusal" as pratik
actor "Referrer" as referrer

pratik -> boss: Send requester form
activate boss

boss -> requester: Notify form existance

boss -> pratik: Send list of eligible mentors

deactivate boss

...Wait for referral request...

requester -> pratik: Send resume\nand list of companies to request referrals

pratik -> pratik: Check if requester is eligible


group if [Requester eligible]
    requester <- - pratik: Notify that they are eligble\nand that they will send\nreferral request.

    ...Wait for Pratik actually having free time...

    pratik -> referrer: Send referral requests
end

@enduml

PlantUML version 1.2021.9(Sun Jul 25 05:13:56 CDT 2021)
(GPL source distribution)
Java Runtime: OpenJDK Runtime Environment
JVM: OpenJDK 64-Bit Server VM
Default Encoding: UTF-8
Language: en
Country: US
--></g></svg>